<svg xmlns="http://www.w3.org/2000/svg" width="560" height="245" viewBox="0 0 560 245" role="img" aria-labelledby="title desc">
<title id="title">AgentContextKit visual project card</title><desc id="desc">Repository context map drawn with technical nodes, in the Cynrath editorial palette.</desc>
<defs><linearGradient id="bg" x2="1" y2="1"><stop stop-color="#121C27"/><stop offset="1" stop-color="#0C151D"/></linearGradient><pattern id="p" width="20" height="20" patternUnits="userSpaceOnUse"><circle cx="1" cy="1" r=".8" fill="#6C9B8E" opacity=".15"/></pattern><clipPath id="c"><rect width="560" height="245" rx="12"/></clipPath></defs>
<g clip-path="url(#c)"><rect width="560" height="245" fill="url(#bg)"/><rect x="270" width="290" height="245" fill="url(#p)"/>
<path d="M0 0H560" stroke="#9AEACA" stroke-width="2"/><path d="M23 208H538" stroke="#91C3B4" opacity=".16"/>
<text x="25" y="36" font-size="11" font-family="Arial, Helvetica, sans-serif" letter-spacing="2.4" fill="#A4C0B6">01 / OPEN SOURCE</text>
<text x="25" y="104" font-size="36" font-weight="700" letter-spacing="-1.4" font-family="Arial, Helvetica, sans-serif" fill="#F2F7F1">AgentContextKit</text>
<path d="M26 128H86" stroke="#9AEACA" stroke-width="3"/><text x="26" y="159" font-size="15" font-family="Arial, Helvetica, sans-serif" fill="#AFC5BC">Repository intelligence</text>
<text x="25" y="224" font-size="10.5" font-family="Arial, Helvetica, sans-serif" letter-spacing="2.1" fill="#86A69B">CONTEXT  /  SAFETY  /  WORKFLOW</text>
<g fill="none" stroke="#8FCFB9" stroke-width="1.3" opacity=".55">
<path d="M408 56L490 105L408 156L327 105Z"/><path d="M408 56V155M327 105V145L408 195L490 145V105M327 145L408 105L490 145"/>
</g><path d="M408 105L408 195" stroke="#BBF5DA" stroke-width="2" stroke-dasharray="5 8"/><g fill="#B2F9DA"><circle cx="408" cy="56" r="5"/><circle cx="327" cy="105" r="4"/><circle cx="490" cy="105" r="4"/><circle cx="408" cy="195" r="5"/></g>
<rect x="374" y="92" width="69" height="26" rx="5" fill="#1D373A" stroke="#5E9B87" stroke-opacity=".8"/><text x="409" y="109" text-anchor="middle" font-family="monospace" font-size="10.5" fill="#C7F7DE">REPO</text>
</g></svg>